HIERARCHY
ROOT Hips
{
	OFFSET	0.00	0.00	0.00
	CHANNELS 6 Xposition Yposition Zposition Zrotation Xrotation Yrotation
	JOINT LeftUpLeg
	{
		OFFSET	 0.126116	-0.014019	-0.065224
		CHANNELS 3 Zrotation Xrotation Yrotation
		JOINT LeftLeg
		{
			OFFSET	 0.000000	 0.000000	 0.569914
			CHANNELS 3 Zrotation Xrotation Yrotation
			JOINT LeftFoot
			{
				OFFSET	 0.000000	 0.000000	 0.544423
				CHANNELS 3 Zrotation Xrotation Yrotation
				JOINT LeftToeBase
				{
					OFFSET	 0.000000	 0.000000	 0.207117
					CHANNELS 3 Zrotation Xrotation Yrotation
					End Site
					{
						OFFSET	 0.000000	 0.000000	 0.207117
					}
				}
			}
		}
	}
	JOINT RightUpLeg
	{
		OFFSET	-0.124023	-0.008373	-0.065224
		CHANNELS 3 Zrotation Xrotation Yrotation
		JOINT RightLeg
		{
			OFFSET	 0.000000	 0.000000	 0.570047
			CHANNELS 3 Zrotation Xrotation Yrotation
			JOINT RightFoot
			{
				OFFSET	 0.000000	 0.000000	 0.544354
				CHANNELS 3 Zrotation Xrotation Yrotation
				JOINT RightToeBase
				{
					OFFSET	 0.000000	 0.000000	 0.207540
					CHANNELS 3 Zrotation Xrotation Yrotation
					End Site
					{
						OFFSET	 0.000000	 0.000000	 0.207540
					}
				}
			}
		}
	}
	JOINT Spine
	{
		OFFSET	 0.000184	-0.007763	 0.117403
		CHANNELS 3 Zrotation Xrotation Yrotation
		JOINT Spine1
		{
			OFFSET	 0.000000	 0.000000	 0.137269
			CHANNELS 3 Zrotation Xrotation Yrotation
			JOINT Spine2
			{
				OFFSET	 0.000000	 0.000000	 0.156879
				CHANNELS 3 Zrotation Xrotation Yrotation
				JOINT LeftShoulder
				{
					OFFSET	 0.080501	-0.002496	 0.160144
					CHANNELS 3 Zrotation Xrotation Yrotation
					JOINT LeftArm
					{
						OFFSET	 0.000000	 0.000000	 0.164363
						CHANNELS 3 Zrotation Xrotation Yrotation
						JOINT LeftForeArm
						{
							OFFSET	 0.000000	 0.000000	 0.364576
							CHANNELS 3 Zrotation Xrotation Yrotation
							JOINT LeftHand
							{
								OFFSET	 0.000000	 0.000000	 0.360812
								CHANNELS 3 Zrotation Xrotation Yrotation
								JOINT LeftHandIndex1
								{
									OFFSET	 0.000000	 0.000000	 0.086006
									CHANNELS 3 Zrotation Xrotation Yrotation
									JOINT LeftHandIndex2
									{
										OFFSET	 0.000000	 0.000000	 0.047236
										CHANNELS 3 Zrotation Xrotation Yrotation
										JOINT LeftHandIndex3
										{
											OFFSET	-0.004284	-0.000551	 0.038166
											CHANNELS 3 Zrotation Xrotation Yrotation
											End Site
											{
												OFFSET	-0.004284	-0.000551	 0.038166
											}
										}
									}
								}
							}
						}
					}
				}
				JOINT Neck
				{
					OFFSET	 0.000000	 0.000000	 0.176489
					CHANNELS 3 Zrotation Xrotation Yrotation
					JOINT Head
					{
						OFFSET	 0.000000	-0.001747	 0.077940
						CHANNELS 3 Zrotation Xrotation Yrotation
						End Site
						{
							OFFSET	 0.000000	-0.001747	 0.077940
						}
					}
				}
				JOINT RightShoulder
				{
					OFFSET	-0.080363	 0.000306	 0.159706
					CHANNELS 3 Zrotation Xrotation Yrotation
					JOINT RightArm
					{
						OFFSET	 0.000000	 0.000000	 0.164196
						CHANNELS 3 Zrotation Xrotation Yrotation
						JOINT RightForeArm
						{
							OFFSET	 0.000000	 0.000000	 0.365611
							CHANNELS 3 Zrotation Xrotation Yrotation
							JOINT RightHand
							{
								OFFSET	 0.000000	 0.000000	 0.360648
								CHANNELS 3 Zrotation Xrotation Yrotation
								JOINT RightHandIndex1
								{
									OFFSET	 0.000000	 0.000000	 0.069977
									CHANNELS 3 Zrotation Xrotation Yrotation
									JOINT RightHandIndex2
									{
										OFFSET	 0.000000	 0.000000	 0.052305
										CHANNELS 3 Zrotation Xrotation Yrotation
										JOINT RightHandIndex3
										{
											OFFSET	 0.009002	-0.000782	 0.042196
											CHANNELS 3 Zrotation Xrotation Yrotation
											End Site
											{
												OFFSET	 0.009002	-0.000782	 0.042196
											}
										}
									}
								}
							}
						}
					}
				}
			}
		}
	}
}
MOTION
Frames:    4
Frame Time: 0.03333334
-0.000392	 0.017427	 1.303063	-0.001112	 0.015103	-0.078112	-18.046480	-1.791264	-179.093000	 1.471098	-12.129750	-0.708435	-3.107371	 65.553880	-3.384957	-2.385833	 28.452760	 0.000004	 17.926500	-2.302794	 179.288100	-1.448916	-12.820840	 0.736353	 3.108754	 65.708730	 3.214993	 2.384658	 28.388730	 0.000004	 1.590961	 1.843023	 0.061935	 0.873494	 6.735065	 0.284018	-2.560230	-8.632463	-0.676681	-91.776180	 78.527420	 180.000000	 62.327870	 43.179630	-43.765910	-7.490716	 5.531070	-13.981100	-28.767920	 4.166246	-4.236671	-2.635965	 4.993658	 6.788941	-5.165319	 0.784187	 3.516649	-5.225038	 0.466231	 0.424329	-0.000002	-3.783157	-0.089647	-2.388415	 3.090502	 0.064425	 89.782180	 78.203900	 179.999900	 6.919300	 13.097750	 86.775670	-33.729530	-4.589010	 13.786920	 4.240292	 3.594525	-6.139967	 6.112037	 4.509576	-0.364401	 4.968462	 1.518543	-9.347576	 5.168945	 0.703820	 2.021906
-0.000411	 0.017384	 1.303798	-0.000982	 0.014227	-0.088209	-18.042060	-1.788547	-179.084000	 1.471228	-12.119660	-0.707830	-3.117874	 65.430450	-3.371818	-2.385833	 28.452760	 0.000004	 17.922150	-2.309293	 179.295900	-1.448636	-12.841910	 0.737607	 3.120005	 65.600960	 3.200988	 2.384658	 28.388730	 0.000004	 1.742457	 1.859539	 0.061207	 0.952146	 6.682724	 0.308709	-2.796875	-8.557450	-0.736111	-91.776180	 78.527470	 180.000000	 62.334580	 43.172200	-43.828950	-7.495054	 5.513586	-13.935720	-28.740290	 4.446252	-4.236736	-2.635965	 4.993658	 6.788941	-5.165319	 0.784187	 3.516649	-5.225038	 0.466231	 0.424329	-0.000002	-3.783157	-0.089647	-2.613262	 3.111569	 0.070975	 89.782160	 78.203900	 179.999900	 6.974454	 13.163180	 86.793600	-33.778720	-4.604553	 13.792930	 4.267126	 3.838708	-6.163655	 6.112037	 4.509576	-0.364401	 4.968462	 1.518543	-9.347576	 5.168945	 0.703820	 2.021906
-0.000430	 0.017340	 1.304541	-0.000805	 0.013239	-0.098498	-18.037540	-1.786186	-179.074700	 1.471345	-12.110400	-0.707274	-3.128284	 65.306290	-3.358672	-2.385833	 28.452760	 0.000004	 17.917740	-2.315903	 179.303800	-1.448351	-12.863570	 0.738896	 3.131263	 65.492300	 3.186987	 2.384658	 28.388730	 0.000004	 1.892450	 1.877679	 0.060551	 1.029746	 6.625309	 0.333717	-3.030756	-8.475373	-0.794335	-91.776230	 78.527470	-180.000000	 62.345650	 43.160420	-43.898270	-7.499265	 5.496698	-13.891940	-28.714330	 4.709028	-4.237240	-2.635965	 4.993658	 6.788941	-5.165319	 0.784187	 3.516649	-5.225038	 0.466231	 0.424329	-0.000002	-3.783157	-0.089647	-2.835955	 3.134844	 0.077603	 89.782140	 78.203870	 180.000000	 7.035759	 13.244700	 86.811530	-33.833630	-4.622963	 13.802900	 4.298494	 4.052435	-6.190927	 6.112037	 4.509576	-0.364401	 4.968462	 1.518543	-9.347576	 5.168945	 0.703820	 2.021906
-0.000449	 0.017295	 1.305289	-0.000577	 0.012156	-0.108936	-18.033000	-1.784377	-179.065100	 1.471440	-12.102330	-0.706790	-3.138726	 65.181410	-3.345450	-2.385833	 28.452760	 0.000004	 17.913200	-2.322759	 179.311700	-1.448051	-12.886020	 0.740227	 3.142471	 65.382840	 3.172973	 2.384658	 28.388730	 0.000004	 2.040694	 1.897362	 0.059932	 1.106146	 6.562842	 0.358926	-3.261433	-8.386226	-0.851166	-91.776150	 78.527450	 180.000000	 62.362340	 43.144470	-43.975560	-7.503278	 5.480512	-13.849890	-28.691320	 4.939459	-4.238167	-2.635965	 4.993658	 6.788941	-5.165319	 0.784187	 3.516649	-5.225038	 0.466231	 0.424329	-0.000002	-3.783157	-0.089647	-3.056127	 3.160414	 0.084314	 89.782100	 78.203900	 180.000000	 7.101292	 13.328850	 86.828670	-33.889550	-4.643170	 13.817020	 4.326892	 4.233795	-6.217955	 6.112037	 4.509576	-0.364401	 4.968462	 1.518543	-9.347576	 5.168945	 0.703820	 2.021906
